<svg enable-background="new 0 0 1219 1200" viewBox="0 0 1219 1200" xmlns="http://www.w3.org/2000/svg"><path d="m799.9 88c2.4 2.1 5.5 1.9 9.8 3.1-6-5.3-11-9.5-15.8-13.9-11.1-10-16.7-22.6-17.8-37.4-.8-11.4-.1-22.6 2.1-33.8.7-3.4 2.2-4.1 5.1-2.4 10.9 6.5 21.4 13.5 28.7 24.4 7.6 11.3 10.4 24.1 11.8 37.2 1 9.2 1 18.6-.6 27.9-.5 2.8.6 4.4 3.1 5.4 11.5 4.9 22.7 10.4 33.7 16.4 9.2 5 18.2 10.3 28.4 16.1-3.8-6.2-7.9-10.6-11.6-15.2-10.8-13.3-13.1-28.4-11.4-44.7 1-10.2 4.6-19.7 7.9-29.4 1.2-3.4 2.9-4.1 5.8-1.7 18 14.6 29.8 32.3 30.1 56.6.2 13.5-2 26.5-5.8 39.4-.9 3-.6 5 2.2 6.8 18.4 11.7 35.4 25.4 52.2 39.3.4.3.8.5 2.5 1.4-2-4-3.3-6.9-5-9.7-12.2-20-10.9-40.6-2.3-61.4 2.6-6.3 5.5-12.5 9.3-18.2 2.3-3.4 3.8-3.2 6.4-.4 18.2 19.6 24.9 42.3 19 68.7-2.4 10.5-5.6 20.6-10.8 29.9-1.7 3.1-1.7 5 1.3 7.6 14.8 13.2 28.2 27.8 40.8 43.1.5.6.9 1.4 1.4 2.1.4-.2.7-.4 1.1-.6-1.2-5-2.3-10-3.8-15-3.9-13.5-.9-26.2 4.6-38.4 4.8-10.7 11.5-20.2 19.2-29 3.4-3.8 4.3-3.8 7 .5 14 23.1 17.6 46.9 6.4 72.4-4.5 10.1-9.2 20-16.1 28.6-1.7 2.2-1.4 4 0 5.8 12.7 17.2 23.5 35.5 33.9 54.1.4.7.9 1.3 2.1 2.9-.8-8.2-1.6-15.2-1.9-22.3-.6-14.3 5.1-26.3 13.1-37.5 5.9-8.3 13.3-15.3 21-22 5.6-4.9 6.3-4.6 9.1 2.2 6.1 14.7 8.2 30 5 45.5-3 14.6-11 27-19.9 38.8-4 5.3-8.7 10-13.6 14.6-1.7 1.6-2.3 2.9-1.2 5.2 8.6 18.2 16.5 36.8 22.7 56 .6 1.8 1.6 3.5 3 6.4.7-8.6.9-15.9 1.9-23.1 1.9-13.5 9.2-24.1 18.5-33.5 8.5-8.6 18.5-15.2 28.9-21.2 2.8-1.6 5-2.3 5.7 1.9 3.7 20.1 4.5 39.8-6.7 58.1-9 14.6-20.4 27.1-34.9 36.5-6.6 4.3-6.8 4.4-4.9 12 4.2 16.8 8.5 33.6 11 50.8.4 2.4 1 4.8 1.6 7.5 2.2-1.5 1.9-3.5 2.2-5.2 3.7-24.6 18.2-40.7 39.8-51.6 6.8-3.4 13.6-7 21.1-9 3.6-1 5.1-.5 5.3 3.6.5 16.6-1.3 32.7-10 47.3-6.4 10.7-15.7 18.9-25.7 26.3-8.1 5.9-16.6 11.1-26 14.8-3.2 1.3-2.9 3.7-2.7 6.2 1.3 18.8 2.5 37.6 2.1 56.4 0 .6.2 1.2 1.3 2.2 1-2.3 2.2-4.6 3.1-6.9 5.7-15.1 16-25.8 30.2-33.1 12.7-6.6 26.3-10.3 40.5-12.1 3.8-.5 4.8.7 4.2 4.3-2.7 16.8-7.3 32.9-18.9 46-7.9 9-17.9 15.3-28.4 20.8-9.3 4.9-19.2 8.4-29.4 11-2.8.7-4.3 2.1-4.5 5.1-1 18.2-3.9 36.1-7.7 53.8-.2.9 0 1.8 0 3.7 3.8-5.3 6.9-10 10.3-14.4 10.4-13.6 24.9-20 41.2-23.3 10.3-2.1 20.7-3.2 31.3-2.8 6 .2 6.2.5 4.6 6.1-8.9 30.3-28.5 49.8-59 58.1-10.6 2.9-21.3 5.7-32.4 5.9-2.2 0-3.8.7-4.4 3.1-4.4 18-10.3 35.5-16.3 53 0 .1.1.3.3.8 4.4-2.8 7.2-7.3 10.9-10.6 12.2-10.9 26.7-15.3 42.6-16.1 12.4-.7 24.6.6 36.8 2.8 4.5.8 4.6 2.6 2.8 6.1-14.5 27.3-35.8 45-67.6 48.2-11.8 1.2-23.5 2.5-35.3.3-1.9-.4-3.6-.3-4.6 1.9-7.7 16.3-16.2 32.1-25.2 47.7-.2.4-.2.9-.3 1.6 2.6.5 4.2-1.3 5.7-2.5 22.2-17.7 46.9-16.2 72.2-9.4 5.8 1.6 11.4 3.8 17.1 5.7 2.9 1 3.6 2.7 1.7 5.3-16.4 21.4-36.2 36.6-64.6 37.4-16.3.4-32.3-.3-47.8-5.8-3.3-1.2-5.1-.4-7.4 2.7-10.9 14.7-21.5 29.6-34.4 42.6-.2.2-.1.6-.2 1.5 4.8-.9 8.8-3.3 12.9-5.2 18.6-8.9 37.1-7.3 55.9-.9 10 3.4 19.4 8 28.4 13.4 6.1 3.6 6.2 4.1 1.1 8.7-23 21-49.3 30.1-80.4 22.6-12.9-3.1-25.3-7.1-37.2-12.9-2.8-1.4-4.5-.8-6.6 1.2-10.1 9.4-20.4 18.7-30.5 28.1-3.7 3.5-8.3 6-11.8 10.8 7.2-2 13.7-4 20.3-5.5 15.4-3.7 29.9.3 43.6 6.8 12.9 6.2 24.9 14.1 35.3 24.2 2.7 2.7 2.4 3.8-.6 5.8-16.8 11.2-35 18-55.4 16.9-16.9-.9-32.5-6.8-47.3-14.8-6.5-3.5-12.7-7.3-18.5-11.9-1.7-1.4-3.5-2.3-5.9-.7-14.6 9.9-29.3 19.7-44.6 28.4-.3.1-.4.5-.6.9.9 1.6 2.4.7 3.5.5 25.7-3.9 47.4 4 66.3 21.6 7 6.5 13.5 13.3 19.7 20.4 4.3 5 4.2 5.7-2.4 8.4-23 9.4-46.2 12.9-69.8 2.2-17.8-8-33.7-18.8-47.1-33.1-2-2.2-3.9-3.5-6.9-1.9-15.4 8-31.9 13.4-47.9 20.4 4 .4 7.9 1 11.9 1.3 14.9 1.1 27.5 7.3 38.7 16.9 13.6 11.6 23.4 26.2 32 41.7 2.2 4 1.1 5.6-3.1 6.4-15.5 3-31.1 4.1-46.7.9-12.7-2.6-23.5-9.1-33.6-17-13.8-10.7-25.8-23.1-34.7-38.2-1.8-3-4.3-2.6-7-2.1-26 5.1-51.6 11.9-76.4 21.2-7.6 2.9-15.2 5.9-22.8 9-1.3.5-3.2.8-3.2 2.7 0 1.5 1.7 1.9 2.8 2.5 17.8 9.5 34.6 20.6 50.5 33.1 6.1 4.8 11.7 10.3 17.5 15.6 2.4 2.2 1.9 3.9-.4 6.1-5 4.9-11.1 8.5-15.2 14.4-.3 0-.7 0-1 0-8.8-3.6-14.1-11.5-21-17.3-11.6-9.8-23.8-18.6-36.6-26.8-5.6-3.6-11.4-6.9-17-10.4-3.5-2.2-6.7-2.3-10.3-.2-24.3 14-47.4 29.6-67.1 49.7-2.3 2.4-5.2 3.5-7.9 5-.3 0-.7 0-1 0-6.6-3-11.8-7.7-16.6-12.9-3.4-3.7-3.3-5.6.2-9.4 8.6-9.4 18.6-17.1 28.8-24.6 10.5-7.7 21.6-14.4 32.7-21.1 1.4-.8 3.4-1.4 3.4-3.3-.1-2.3-2.5-2.4-4.1-3.1-22.3-9.8-45.6-16.9-69.3-22.4-6.6-1.5-13.1-3.7-19.9-4.7-4.1-.6-6.8.5-9.3 4.1-12.3 17.7-27.3 32.8-45.9 43.9-9.8 5.9-20.7 9.6-32.5 10.3-12.1.7-23.9.1-35.7-2.1-7.7-1.4-9.3-4.3-5.7-11 10.4-19.5 23.3-36.9 42.1-49.1 10.1-6.5 21.4-10 33.5-10.4 1 0 2 0 2.9.4.5.2 1.1.4 1.6.5-.5-.2-.9-.3-1.4-.4-14.2-3-27-9.7-40.1-15.5-4.3-1.9-7.4-.6-10.3 2.5-8.9 9.6-19.4 17.2-30.7 23.7-14.5 8.2-29.7 14.9-46.7 14.1-14.3-.6-28.4-3.7-41.5-10-4.8-2.3-5.6-4.7-2.4-9.1 6.3-8.9 13.9-16.6 22.1-23.7 9.7-8.5 20.5-15.3 32.8-19.6 10-3.5 20.3-2.1 30-2.3-5.4-2.2-10.4-6.2-15.7-9.6-5.7-3.7-11.6-7.2-17.1-11.3-6-4.4-7.6-4.1-13.8.1-15.5 10.6-32.2 18.7-50.9 22.2-18.6 3.4-36.4 1.1-53.4-7.5-5-2.6-10.3-4.7-14.9-8.1-4.3-3.1-4.8-5.5-1-9.3 13.3-13.2 28.6-23.3 46.5-29.3s25.4-5.8 46 .2c-7.5-4.7-13.3-11.7-20.1-17.6-4.5-3.9-9.1-7.8-13-12.4-2.2-2.6-5-3-8.2-2-3 1-5.8 2.4-8.8 3.7-18.7 7.9-38.1 11.8-58.4 10.8-5.4-.3-10.5-1.8-15.5-3.7-14.2-5.3-27.2-12.6-37.7-23.7-3.6-3.8-3.5-5.4.6-8.9 3.9-3.3 8.5-5.3 12.9-7.6 19.2-10.2 39.5-15.8 61.5-12.2 7.5 1.2 14 5 20 7.6-6.8-6.5-12.8-14.9-19.2-23-3.2-4-6.3-8.2-9.3-12.4-2.4-3.3-5.4-4.3-9.2-3-14.3 5-29.1 5-43.9 4.9-23.8-.2-42.9-10.2-58.7-27.5-3.4-3.7-6.9-7.3-9.8-11.3-2.6-3.5-2-6.3 2-8 20.9-8.7 42.5-13.9 65.2-9.8 11.2 2 20.9 7.3 29.3 15.1.4.6.3-.5 0 .1-.1.1-.2.1-.4-.2-5.7-6.9-8.9-15.1-13.1-22.8-3.2-5.8-6.6-11.6-9.1-17.8-1.6-4.1-4.9-5.4-8.9-4.7-12.9 2.2-25.6-.1-38.2-2.1-23.8-3.7-42-15.9-55.1-35.9-2.8-4.3-5.8-8.6-7.8-13.4-2.2-5.3-1-7.5 4.5-8.6 17.5-3.4 35-4.5 52.6-1 12.8 2.6 23.4 9.1 32.7 18 .7.7 1.4 1.4 1.9 2.3.4.7.9 1.3.7 2.1-6.2-13.9-10.2-28.6-14.2-43.3-1.1-4.2-3.3-5.8-7.6-6.4-21.2-2.7-41.6-7.9-59.4-20.3-6.3-4.4-11.5-10.2-15.9-16.5-6.3-9.1-11.8-18.6-13.2-30-.7-6.3-.3-6.5 5.8-7.2 12-1.4 23.8.4 35.2 2.9 15.1 3.3 28.9 9.8 38.7 22.7 1.8 2.4 4.5 4.2 5.1 6.4-.9-2.1-.2-5.4-1.4-8.3-2.3-11.3-3.2-22.7-4.3-34.1-.5-5.4-3.1-8.1-8-9.3-13.6-3.3-25.9-9.5-37.5-17-19.1-11.9-31-27.9-33.6-50-.2-1.8.1-4-1.5-5.6 0-3.7 0-7.3 0-11 19.1 2 37.2 6.9 53.5 17.6 10.3 6.8 16.8 16.4 21.9 27.3 1.1 2.3 2 4.7 3.1 7.5 1.9-2.2 1.3-4.1 1.3-5.9-.2-17.7.7-35.3 2.8-52.9.4-3.2-.7-4.7-3.7-6-17.7-7.6-33.1-18.5-45.7-33.2-11.2-13-14.5-28.9-16.1-45.4-.1-1.5-.1-3-.1-4.5 0-10.7 0-10.9 10-7.4 15 5.2 28.6 12.9 40 23.9 9.5 9.2 14.2 21.2 16.8 34 .5 2.3.9 4.6 2 6.9 1.8-9.1 3.9-18.2 5.4-27.3 2-11.7 5.3-23 8.5-34.4.8-3.1.2-4.9-2.6-6.6-16.7-10.5-29.7-24.6-39.9-41.3-4.8-7.9-6.3-16.8-7.2-25.8-1-9.9.1-19.6 2.1-29.3.6-2.9 1.4-4.7 4.9-2.8 14.8 8 28 17.9 38.3 31.5 8.3 11 11.1 23.6 11.5 37 .1 3 0 6 .8 9.2 1.7-4.3 3.6-8.6 5-13 5.3-16 11.9-31.4 19.1-46.7 1.7-3.7 1.5-6.3-1.7-9.1-11.9-10.6-20.3-23.7-27.2-37.9-7.6-15.6-7.3-31.9-3.4-48.3 1.2-4.9 2.6-9.6 4.9-14.1 1.1-2.2 2.3-3.2 4.6-1.4 16.5 13.4 31.2 28.3 36.4 49.8 2 8.3 1.1 16.9.2 25.4-.3 2.8-.7 5.6-1.3 9.9 2.9-5 5.1-8.7 7.1-12.4 8.3-15.2 17.5-29.9 27.6-44 2.2-3.2 3-5.4.2-9.1-11.2-14.7-18-31.4-21.4-49.6-2.6-14.1 2.1-27 7.4-39.7 1.6-3.8 3.9-7.3 6-11 1.6-2.8 3.4-3.5 5.8-.7 12.1 14.6 23 29.8 25.7 49.4 1.5 10.9-1.2 21.2-4.2 31.4-.2.8-.5 1.5 0 3 3.5-3.9 7-7.9 10.5-11.8 9.1-10.4 18.3-20.7 28.8-29.7 6.6-5.6 6.6-5.8 2.9-13.6-7.9-16.7-11.6-34.4-10.7-52.9.6-13.7 6.7-25.3 14.7-36 2.1-2.8 4.3-5.5 6.6-8.1 1.8-2 3.5-2.1 5.1.6 8.5 14.1 15.1 28.9 16.5 45.6 1.1 13-3.3 24.6-9.4 35.7-1.3 2.3-2.5 4.6-3 7.7 3.9-3.1 7.9-6.1 11.7-9.3 13.1-10.9 26.7-20.9 40.9-30.3 3-2 3.9-3.9 2.6-7.4-6.7-17.6-6.9-35.9-4.1-54.2 1.7-10.8 7.8-19.7 14.7-28 4.2-5 8.9-9.4 14.1-13.4 2.2-1.7 4-2 5 .9 8.9 25.1 15.2 50-2.5 74.3-3.6 4.9-8.1 9.1-11.8 15.7 6.5-3.7 11.7-6.7 17-9.7 14.6-8.5 29.6-16 45-22.7 4-1.7 2.9-4.7 2.6-7.6-1.8-16.9-.9-33.5 4.8-49.8 5.2-15 15.7-25.2 28.7-33.5 2.4-1.5 4.8-2.9 7.3-4.3 2.3-1.3 3.9-.8 4.3 1.9 3.2 20.6 5.8 41.1-5.9 60.2-4.8 8.1-11.8 14-18.8 19.9-1.7 1.5-3.9 2.6-4.6 5.3 13-6.7 28.5-6.9 39.4-19.3 15.2-17.2 35-21.3 57-14.4 3.3 1.1 6.6 2.3 10 3.1 4.1 1 3.8 2.9 1.3 5.4-11.9 11.9-25.7 20.7-42.4 24-8.7 1.7-17.4 0-25.4-3.6-6.9-3.1-13.1-3.2-20-.1-11.1 5.1-23 8.6-33.7 15.4 5.5-.5 11-1 16.4-1.5 14.1-1.3 27.7 0 39.8 8.1 12.6 8.3 22.3 19.4 29.9 32.3 1.5 2.6.7 4-2 4.7-23.4 6.4-45.4 5-65.3-10.7-9.2-7.3-17.9-15-24.4-24.8-2.5-3.7-5-4.5-9.1-2.3-16.4 8.6-32.6 17.3-48 27.6-4.3 2.8-9.2 4.8-13.4 9.8 4-1.1 7-1.6 9.9-2.6 27-9.9 50-2.5 70.4 16 3.8 3.5 7.3 7.3 10.9 11 2 2.1 1.6 3.6-1 5-26 13.4-51.3 12-75.9-3.4-7.5-4.7-14.6-9.8-20.9-16.1-2.4-2.4-4.5-3.4-7.7-1-18.5 13.9-36.7 28.2-53.3 44.4-.3.3-.4.8-.8 1.7 4.7-1 8.5-3 12.3-4.8 19.2-9.2 38.1-9 57.2.4 8.4 4.2 16.3 8.9 23.6 14.8 1.4 1.1 3.4 2.2.9 4.2-15.2 11.8-32 19.3-51.7 17.2-17.1-1.8-33.1-7.5-47.5-17-7.3-4.8-8.2-4.3-14 2-12.7 13.7-25 27.7-36.3 42.5-2.8 3.6-5.6 7.2-8.1 12.9 8.6-7 16.7-12 25.1-16.7 12.2-6.9 25-7.4 38.3-5.4 12.1 1.9 23.3 6.7 34.2 12.2 2.9 1.5 3.7 2.9 1 5.9-17.6 18.7-38.5 28.9-64.7 25.1-12.7-1.8-25.4-3.9-36.9-10.1-2.5-1.3-4.6-1.6-6.4 1.2-11.9 18.9-23.2 38.1-32.8 58.2-.6 1.2-.9 2.4-1.7 4.4 5.6-5 10.6-9.4 15.6-14 15.5-14.2 34.2-15.7 53.9-13.6 7.5.8 14.7 3 21.8 5.2 5.6 1.7 5.9 2.1 2.6 7-14.6 21.5-33.9 34.9-60.8 35.4-12.2.2-24.3.1-36.3-2.8-2.4-.6-4.4-1-5.8 2-8.9 19.8-16.1 40.2-22.1 61-.1.4.1.9.2 2.1 4.2-5.1 8-9.8 11.9-14.4 12.1-14 28-19.9 46-20.9 9.1-.5 18.3-.4 27.4.8 4.1.5 5.3 1.8 3.6 5.7-10.1 23.6-26 40.8-52 46.8-13.2 3-26.4 5.5-40.1 4.3-2.6-.2-3.9.5-4.6 3.2-5.8 22.1-9 44.7-12.7 68.3 3.1-2.5 3.8-5.2 5-7.6 6.1-12.2 12.9-23.8 25.1-31 16.2-9.5 33.9-13.5 52.5-13.8 3.8-.1 4.5 1.5 3.7 5-4.1 17.4-11.6 33.1-25.4 44.8-9.7 8.3-21.4 13.5-33.5 17.4-8.1 2.6-16.3 5.1-24.8 5.8-3.1.3-4.4 1.5-4.6 4.6-1.1 22.1-1.4 44.3.5 67.7 2.1-6.1 4.1-11 5.6-16.1 6-19.8 19.1-32.9 37.6-41.5 9.9-4.6 20.2-7.7 30.6-10.5 3.3-.9 4.6.1 4.3 3.6-1.3 17.9-5.5 34.9-16.8 49.4-6.9 9-16.1 15.3-25.6 21.2-9.7 6-19.9 10.7-30.9 13.8-2.1.6-3.3 1.5-2.9 3.8 3.2 19.9 5.9 39.9 11.7 59.2.1.2.5.4.8.6 1.5-1.3.9-3.1 1-4.6 1.8-25.3 13.9-44.3 35.1-57.8 7.9-5 16.2-9.3 24.8-12.9 3.2-1.4 5.1-1.3 5.6 2.6 2.6 23.1-.3 44.7-15.7 63.5-11.4 13.9-25.1 24.6-40.8 33.2-2.5 1.4-3.9 2.6-3 5.8 5.1 18.9 12.1 37 19.6 55 .2.6.8 1 1.5 1.8 1.3-2.1.7-4.1.7-6-.1-10.5-.8-21.1 2.4-31.3 5-15.8 15.7-27.6 28-38.1 5.5-4.8 11.5-9.1 17.7-13 2.7-1.7 4.2-1.3 5.1 1.8 7.6 25.9 7.6 50.7-8.6 74-9 13-19.4 24.5-31.8 34.2-2.6 2-2.1 3.8-.9 6 5.9 11.4 12.1 22.6 19 33.4 3.3 5.3 6.2 10.9 11 15.9-1-6.8-1.9-13.1-2.9-19.3-2.9-19.2 4-35.6 14.7-51 5.9-8.5 12.9-16.1 20.4-23.2 4.9-4.6 4.8-4.6 8 1.7 6.7 13.2 10.1 27.1 10.4 41.8.4 17.9-6.8 33.4-15.4 48.4-4.7 8.2-10.4 15.9-17.1 22.7-1.7 1.8-1.7 3.6-.2 5.3 11.2 13.6 22.1 27.5 34.5 40.1.5.6 1.2 1 3.1 2.4-1.6-4.4-2.7-7.5-3.9-10.5-6.5-16.4-6.3-32.7-.2-49.2 5-13.6 12.2-25.9 20.8-37.4 3.9-5.2 4.6-5.1 8.4.1 10.8 14.9 17.7 31.2 19.3 49.6.5 5.2-.3 10.3-1.3 15.4-3.6 17.9-9 35.2-19.1 50.6-1.7 2.6-2 4.7.4 7 12.7 11.6 25.9 22.5 39.3 33.1.5.4 1.1.5 2.4 1-2.3-4.5-4.2-8.6-6.4-12.3-10.5-17.8-9.5-36.7-4.9-55.8 2.9-12 7.5-23.4 13.7-34.2 1.7-2.9 2.7-2.4 4.7-.6 24.6 22.5 36.2 49.7 30.5 83.3-2.1 12-3.9 24-9.1 35.2-1 2.1-2 4.1.9 6 15.4 10.2 31.5 19.4 47.7 28.2.6.3 1.2.4 3 1.1-3.4-4-6-7.2-8.8-10.4-17.6-19.8-21.3-43.1-16.8-68.2 1.6-9.2 3.2-18.4 6.6-27.2 1.4-3.5 2.5-3.7 5.6-1.5 12.6 8.7 23.7 18.7 32.1 31.6 7.1 10.9 10.2 23.1 11.7 35.7 2 16.7 1.5 33.3-2.7 49.6-.5 2.1-.4 3.6 1.8 4.5 16 6.2 31.8 12.8 48.5 16.9.4.1.9-.1 1.9-.2-2.9-4.7-7.4-7.3-11.1-10.7-14.6-13.2-20.9-30-23.1-49-1.6-13.5-.9-26.9.8-40.4.5-4.3 2.2-4.5 5.6-2.9 15 6.8 28.7 15.6 39.6 28.1 10.6 12.1 15.5 27 18.8 42.5 2.5 11.6 3.9 23.3 3.4 35.2-.1 3.6 1 5.2 4.8 6 27.6 5.7 54.7 13.4 81 23.5 8.4 3.2 16.7 6.8 24.8 10.5 3.7 1.7 6.8 1.6 10.4-.1 18.8-8.5 38.2-15.7 57.9-21.7 15.8-4.8 31.8-8.5 47.9-12.2 3.4-.8 4.2-2.5 4.1-5.6-.3-13.8 2.3-27.1 5.1-40.5 6.2-29.3 23.8-49.1 50.1-62.1 1.5-.7 3-1.4 4.5-2.2 7.5-3.9 7.7-3.9 8.6 4.4 2.5 22.8 2.3 45.3-7.6 66.7-5.7 12.3-15.7 20.9-25.9 29.2-.6.5-1.3 1-3.1 2.3 6.9-.9 12.2-2.4 17.4-4.3 10.8-3.9 21.5-8.1 32.3-11.9 3.9-1.4 5.5-3 4.6-7.6-3.8-18.1-3.8-36.4-1.2-54.7 3.2-22.1 15.3-38.6 32-52.4 3.9-3.2 7.9-6.1 12.1-8.8 2.3-1.5 3.1-.9 3.9 1.4 8.3 23.5 11.2 47.3 4.7 71.7-3 11.2-10.5 19.9-17.8 28.6-1.2 1.4-2.8 2.4-3.4 5.5 5.4-2.9 10.4-5.2 15-8 10.9-6.4 21.9-12.7 32.4-19.8 3.4-2.3 3.2-3.9 1.9-7.2-8.4-21.8-13.1-44.3-9-67.5 3.6-20.5 15.5-36.9 30.8-50.8 2.2-2 3.5-1 4.6 1.1 1.8 3.4 3.6 6.8 5.2 10.3 8.9 20 14.6 40.5 10.2 62.6-1.7 8.5-6 16.2-10.4 23.7-.9 1.5-1.9 3-2.4 4.8 5.7-1.9 9.6-6.4 14-9.9 9.1-7.3 17.6-15.3 26.5-22.8 3.3-2.7 3.2-4.8 1.1-8.4-12.2-20.7-20.7-42.6-19.7-67.1.8-19.1 9.6-35 20.5-50.1 1.3-1.8 2.6-3.1 4.6-.5 15 19.2 26.7 39.8 27.8 65 .4 8.9-2.8 17-5.5 25.2-1 2.9-2 5.9-2.6 9 9.3-8.7 17.4-18.4 25.4-28.1 3.7-4.5 7.2-9.2 10.9-13.7 1.8-2.2 1.8-3.6-.3-5.9-14.7-16-24.7-34.6-30.6-55.4-2.6-9-2.6-18.2-.7-27.2 2.4-11.4 5.3-22.7 11.2-33 1.5-2.7 2.5-2.4 4.4-.6 13.7 12.7 25.8 26.5 33.2 43.9 5.4 12.7 5.7 25.9 3.3 39.3-.7 3.9-1.4 7.8-1.3 12 2.5-3.7 5.1-7.2 7.3-11 7.2-12 14.5-23.9 21.1-36.3 2-3.7 2.4-5.8-1.7-8.9-16.6-12.8-29.7-28.7-38.5-47.8-6.3-13.8-6.2-28.5-4.1-43.2.8-5.4 2.1-10.8 3.3-16.1.7-3.1 2.4-3.8 5.1-2 18.6 12.2 35.5 26.2 44.6 47.2 4.5 10.4 4.6 21.7 4.1 32.9-.1 2.8-.4 5.6-.2 8.5 2.9-3.7 4.6-8 6.3-12.4 5.6-14.3 10.9-28.6 15.2-43.3 1-3.5.4-5.3-3-7.1-18.6-9.7-34.1-23.2-46.2-40.4-6.1-8.8-8.9-19-10.4-29.4-1.2-8.6-.7-17.3-.2-26 .2-3.4 1.3-5.5 5.4-3.7 15.7 6.8 30.4 15 42.4 27.6 6.8 7.1 11.8 15.1 14.3 24.8 2 7.9 3.6 15.8 5.2 23.9 3.1-12.3 6.7-24.3 8.5-36.8 1-7.1 1.9-14.2 3-21.3.6-3.8-.4-5.7-4.3-6.9-19.4-6-36.7-15.9-51-30.3-10.8-10.9-16.2-24.6-18.5-39.7-.7-4.6-.9-9.3-1.5-13.9-.4-3.2.8-4.4 3.9-3.5 6.9 2 13.9 3.5 20.6 6.1 12.8 5 24.9 11 34.4 21.5 7.2 8 11.4 17.5 14.6 27.6 1.2 3.8 2.2 7.6 3.3 11.4h1.3c.4-4.8 1-9.5 1.2-14.3.5-17.3.4-34.6-.7-52-.2-3.2-1.6-4.1-4.6-4.5-18-2.5-34.9-8.2-50.5-17.7-14.3-8.6-23.1-21.3-28.8-36.5-1.7-4.4-3-8.8-4.4-13.3-1.1-3.4-.5-5.6 3.7-5.4 21.9.8 42.7 4.8 60.1 19.5 8.9 7.5 13.8 17.8 19 27.8.5 1 1 2.1 1.5 3.1 0 .1.3.1 1.1.2-.8-6.7-1.5-13.2-2.3-19.7-1.9-15.4-6-30.4-8.9-45.6-.7-3.6-2.2-4.7-6.1-4.5-21.2.8-41.7-2.5-60.4-12.8-12.6-6.9-20.7-18.6-27.4-31-1.5-2.8-2.9-5.6-4.2-8.5-1.1-2.4-.3-3.9 2.4-4.2 20.6-2.2 41-3.1 60.1 7.1 7.9 4.2 14 10.6 19.6 17.5 2.8 3.5 5.4 7.1 8.9 10.5-.5-1.9-.9-3.9-1.5-5.8-6.1-19.6-13.2-38.7-21.1-57.7-1.6-3.9-4.1-3-6.9-2.4-17.8 3.9-35.7 3.8-53.6.2-13.1-2.7-23.3-10.4-32.3-19.8-4.4-4.6-8.5-9.3-11.7-14.9-1.3-2.2-1.4-3.4 1.3-4.4 15.9-5.8 32.3-7.9 49.2-5.9 14.4 1.7 25.6 10 35.8 19.5 2.5 2.4 4.6 5.2 6.8 7.9.5-.4 1-.8 1.5-1.2-2.9-6-5.6-12.2-8.8-18-7.6-13.9-15.7-27.5-24-40.9-2.5-4-4.8-5.2-9.5-3-16.4 7.9-33.9 10.9-51.9 10.1-14.1-.6-26.2-7-37.2-15.5-4.1-3.1-7.9-6.6-11.4-10.4-1.9-2.1-2.6-3.3.4-4.8 18.3-9.6 37.2-16.4 58.4-13.1 10.5 1.6 19.1 7.5 27.9 13 3.6 2.3 7.1 4.9 10.6 7.4 1.2-1.4.1-2.3-.5-3.1-13.8-18.8-28.7-36.7-45.1-53.4-2.9-3-5.2-3-8.6-.7-16.8 11.7-35.5 18.5-56 18.9-17 .4-31.7-6.8-45-16.9-2.3-1.7-2-3 0-4.6 21.8-16.9 44.9-28.5 73.4-18.5 7.5 2.6 14.6 6.2 22.5 9.6-3.5-4.8-8-7.9-12-11.5-13.9-12.4-28.4-24.2-43.4-35.2-5.4-4-5.6-3.7-10.3 1-7.8 7.8-16.8 14.2-26.8 18.9-7.2 3.3-14.4 6.9-22.5 8.2-16.7 2.8-32-1.9-46.8-8.9-2.1-1-2.9-2.2-1.1-4.1 13.6-14.8 28.5-27.7 49.1-31.3 10.9-1.9 21.6.4 32 3.5 3.1.9 6.3 1.8 9.7 2.3-6-5.8-13.2-10-20.2-14.2-11.1-6.6-22.6-12.8-33.9-19.2-.9-.5-1.7-1.1-2.6-1.5-10.7-4.7-8.5-4.7-15.1 3.4-14 17.4-30.3 32-53.6 35.6-11.9 1.8-23.6-.2-35.1-3.3-2.5-.7-2.9-1.9-1.6-3.9 10.6-16.1 22.4-30.7 41.1-38 9-3.5 18.6-3.6 28.1-2.9 5.9.4 11.7 1 17.7 1.1-7.5-4.4-15.4-7.7-23.4-10.7-.8-.4-1.5-1-.8-1.8 1.1-1 2.1-.9 3-.2z" fill="#989898"/><path d="m777 82c-11.8 5.3-23.9 10.2-37.1 6.9-15.8-3.9-29.4-12-40.4-24.4-1.6-1.8-2.4-3.2.8-4.3 10.9-3.6 21.9-6.7 33.6-6.5 10.5.2 18.9 5.1 26.9 10.8 6.1 4.3 11.4 9.7 16.1 15.5.7.7.7 1.3.1 2z" fill="#999"/><path d="m777 82c0-.6 0-1.3 0-1.9 7.8 2.2 15.6 4.3 22.9 8-1.1.1-2.2.2-1.9 1.8-7-2.7-14-5.3-21-7.9z" fill="#acacac"/></svg>