<?xml version="1.0" standalone="no"?>
<!DOCTYPE svg PUBLIC "-//W3C//DTD SVG 20010904//EN"
 "http://www.w3.org/TR/2001/REC-SVG-20010904/DTD/svg10.dtd">
<svg version="1.0" xmlns="http://www.w3.org/2000/svg"
 width="700.000000pt" height="700.000000pt" viewBox="0 0 700.000000 700.000000"
 preserveAspectRatio="xMidYMid meet">
<metadata>
Created by potrace 1.14, written by Peter Selinger 2001-2017
</metadata>
<g transform="translate(0.000000,700.000000) scale(0.100000,-0.100000)"
fill="#000000" stroke="none">
<path d="M3277 6994 c-1 -1 -41 -4 -88 -8 -47 -4 -95 -8 -105 -10 -10 -2 -48
-7 -84 -12 -36 -4 -67 -8 -70 -9 -3 -1 -25 -5 -50 -9 -25 -4 -101 -21 -170
-38 -69 -16 -135 -31 -147 -34 -13 -2 -78 -23 -145 -45 -1071 -357 -1886
-1167 -2242 -2231 -31 -94 -79 -267 -91 -329 -3 -13 -12 -58 -20 -99 -8 -41
-17 -89 -19 -105 -3 -17 -7 -46 -11 -66 -6 -40 -10 -74 -22 -199 -15 -162 -8
-591 12 -711 2 -13 6 -46 9 -74 37 -321 160 -722 326 -1060 59 -119 170 -316
197 -350 4 -6 29 -42 54 -80 220 -335 582 -693 939 -929 177 -117 208 -135
360 -213 344 -176 730 -298 1099 -349 25 -3 57 -8 71 -10 163 -25 682 -25 842
1 13 2 46 7 73 10 71 10 87 13 115 18 14 3 43 8 65 12 325 59 741 212 1039
384 49 28 91 51 93 51 10 0 268 180 353 247 152 119 321 277 450 422 36 41 70
79 76 85 29 30 185 242 240 326 208 317 371 684 460 1035 31 120 28 107 59
275 34 192 40 248 50 468 l7 142 -218 -2 -218 -3 -2 -70 c-1 -73 -13 -255 -19
-283 -1 -9 -6 -39 -9 -67 -37 -285 -140 -626 -274 -905 -353 -734 -997 -1306
-1772 -1572 -79 -27 -273 -81 -330 -92 -14 -2 -56 -11 -95 -19 -38 -8 -97 -18
-130 -22 -33 -5 -69 -9 -80 -11 -170 -22 -602 -22 -709 1 -12 2 -43 7 -70 10
-506 61 -1055 296 -1481 634 -106 84 -120 97 -246 221 -297 294 -488 572 -667
970 -82 183 -172 491 -206 705 -14 89 -26 189 -32 265 -14 179 -7 490 16 635
5 33 12 80 15 105 4 25 15 86 26 135 11 50 22 99 24 110 11 49 65 226 89 290
15 39 28 75 30 80 13 43 82 194 139 304 299 575 792 1055 1377 1338 200 97
513 206 685 239 22 4 45 8 50 9 15 4 195 33 236 39 49 7 219 19 299 20 l65 1
3 218 2 218 -111 -3 c-61 -2 -111 -4 -112 -4z"/>
<path d="M3500 5856 l0 -216 23 -1 c105 -3 277 -18 287 -24 3 -2 28 -6 57 -10
28 -3 87 -15 130 -26 43 -10 87 -21 97 -24 83 -20 256 -89 379 -152 414 -211
745 -550 950 -971 105 -216 167 -426 203 -692 12 -90 11 -358 -3 -480 -58
-538 -336 -1056 -753 -1401 -268 -221 -623 -393 -937 -453 -121 -24 -288 -42
-415 -45 -17 -1 -18 -18 -18 -217 l0 -217 138 7 c147 6 171 9 302 32 762 132
1426 602 1803 1276 134 238 241 529 282 763 4 22 9 50 11 63 2 12 6 34 9 50 2
15 7 59 11 97 3 39 8 79 10 90 5 26 5 361 -1 399 -2 16 -6 57 -9 90 -4 34 -8
73 -11 86 -5 26 -12 65 -20 114 -2 16 -16 77 -31 135 -158 636 -566 1197
-1129 1551 -110 70 -295 164 -405 208 -136 54 -362 121 -460 136 -19 3 -46 8
-60 11 -24 5 -61 10 -145 21 -22 3 -97 8 -167 11 l-128 6 0 -217z"/>
<path d="M3385 5142 c-580 -40 -1100 -391 -1359 -915 -225 -456 -227 -986 -6
-1442 163 -336 428 -601 765 -766 142 -69 271 -110 450 -143 53 -10 188 -20
270 -20 500 1 972 230 1284 624 220 277 339 601 355 968 l2 52 -218 0 -218 0
0 -46 c0 -71 -29 -239 -55 -319 -142 -434 -505 -751 -950 -829 -115 -20 -320
-18 -430 5 -476 97 -828 430 -950 900 -52 198 -41 475 25 669 92 269 267 492
505 645 92 58 265 133 346 149 13 2 47 9 74 15 69 14 121 20 178 21 l47 0 -2
217 -3 217 -35 1 c-19 0 -53 -1 -75 -3z"/>
</g>
</svg>
